<svg xmlns="http://www.w3.org/2000/svg" xmlns:xlink="http://www.w3.org/1999/xlink" width="300" zoomAndPan="magnify" viewBox="0 0 224.87999 142.499996" height="190" preserveAspectRatio="xMidYMid meet" version="1.0"><defs><clipPath id="8e57ecf0c9"><path d="M 9.164062 124 L 13 124 L 13 136 L 9.164062 136 Z M 9.164062 124 " clip-rule="nonzero"/></clipPath><clipPath id="00e8b2fa67"><path d="M 203 137 L 215.441406 137 L 215.441406 142 L 203 142 Z M 203 137 " clip-rule="nonzero"/></clipPath></defs><path fill="#fce0f1" d="M 50.109375 115.902344 C 69.183594 138.667969 120.3125 120.753906 138.832031 118.886719 C 157.355469 117.019531 211.832031 100.4375 187.363281 50.21875 C 162.894531 0 101.558594 30.304688 85.296875 40.578125 C 70.054688 50.210938 22.511719 82.957031 50.109375 115.902344 " fill-opacity="1" fill-rule="nonzero"/><path fill="#ffffff" d="M 38.195312 140.269531 C 37.984375 140.351562 37.734375 140.527344 37.765625 140.972656 C 37.800781 141.472656 38.085938 141.652344 38.792969 141.6875 C 39.503906 141.726562 47.308594 141.753906 48.347656 141.535156 C 49.628906 141.265625 49.574219 140.875 49.46875 140.394531 C 49.410156 140.128906 49.183594 139.933594 48.871094 139.828125 L 38.195312 140.269531 " fill-opacity="1" fill-rule="nonzero"/><path fill="#fab831" d="M 38.433594 135.496094 C 38.175781 136.09375 37.808594 137.398438 37.851562 138.410156 C 37.871094 138.910156 37.933594 139.425781 38.050781 139.859375 C 38.179688 140.324219 38.542969 140.652344 38.953125 140.664062 C 40.570312 140.703125 45.308594 140.800781 46.824219 140.648438 L 48.371094 140.496094 C 48.722656 140.460938 48.953125 140.082031 48.867188 139.664062 C 48.863281 139.644531 48.859375 139.625 48.855469 139.605469 C 48.527344 138.144531 47.261719 137.351562 46.089844 137.339844 C 45.695312 137.332031 42.296875 135.496094 42.296875 135.496094 C 40.847656 135.984375 38.433594 135.496094 38.433594 135.496094 " fill-opacity="1" fill-rule="nonzero"/><path fill="#ffffff" d="M 43.773438 137.75 C 43.851562 137.730469 43.917969 137.683594 43.96875 137.613281 C 44.160156 137.324219 44.558594 136.894531 44.808594 136.875 C 44.84375 136.871094 44.886719 136.871094 44.949219 136.941406 C 45.070312 137.074219 45.277344 137.082031 45.410156 136.957031 C 45.542969 136.835938 45.554688 136.628906 45.429688 136.492188 C 45.246094 136.292969 45.011719 136.199219 44.757812 136.21875 C 44.101562 136.269531 43.53125 137.085938 43.421875 137.25 C 43.320312 137.402344 43.363281 137.605469 43.511719 137.707031 C 43.59375 137.757812 43.6875 137.773438 43.773438 137.75 " fill-opacity="1" fill-rule="nonzero"/><path fill="#f8a18e" d="M 43.335938 130.832031 C 41.925781 130.644531 40.011719 130.464844 38.742188 130.351562 L 39.324219 121.964844 L 36.167969 109.675781 L 41.539062 108.296875 L 44.796875 120.988281 L 44.941406 121.542969 L 44.867188 121.984375 L 43.332031 130.835938 L 43.335938 130.832031 " fill-opacity="1" fill-rule="nonzero"/><path fill="#fab831" d="M 41.289062 103.296875 L 44.578125 120.132812 L 36.167969 121.40625 L 34.003906 109.898438 L 37.34375 105.128906 L 41.289062 103.296875 " fill-opacity="1" fill-rule="nonzero"/><path fill="#ffffff" d="M 38.742188 130.351562 L 38.429688 134.921875 C 38.410156 136.03125 39.261719 136.964844 40.367188 137.042969 C 41.476562 137.121094 42.449219 136.320312 42.585938 135.214844 L 43.335938 130.832031 C 41.925781 130.644531 40.011719 130.464844 38.742188 130.351562 " fill-opacity="1" fill-rule="nonzero"/><path fill="#f8a18e" d="M 19.867188 121.957031 L 26.339844 119.167969 L 31.226562 106.5625 L 36.394531 108.570312 L 31.085938 122.257812 L 30.605469 123.503906 L 29.460938 123.855469 L 21.332031 126.378906 C 20.921875 125.015625 20.289062 123.164062 19.867188 121.957031 " fill-opacity="1" fill-rule="nonzero"/><path fill="#f8a18e" d="M 15.554688 127.570312 C 15.789062 127.683594 16.039062 127.753906 16.300781 127.777344 C 16.039062 127.753906 15.789062 127.683594 15.554688 127.570312 " fill-opacity="1" fill-rule="nonzero"/><path fill="#f8a18e" d="M 14.9375 127.101562 C 15.113281 127.296875 15.324219 127.453125 15.554688 127.570312 C 15.324219 127.453125 15.113281 127.296875 14.9375 127.101562 " fill-opacity="1" fill-rule="nonzero"/><g clip-path="url(#8e57ecf0c9)"><path fill="#ffffff" d="M 10.664062 124.636719 C 10.550781 124.445312 10.339844 124.226562 9.902344 124.324219 C 9.414062 124.4375 9.28125 124.746094 9.355469 125.453125 C 9.429688 126.160156 10.617188 133.886719 10.992188 134.878906 C 11.457031 136.105469 11.835938 135.988281 12.292969 135.808594 C 12.542969 135.710938 12.707031 135.457031 12.757812 135.132812 L 10.664062 124.636719 " fill-opacity="1" fill-rule="nonzero"/></g><path fill="#fab831" d="M 15.410156 124.132812 C 14.78125 123.972656 13.4375 123.8125 12.445312 124.007812 C 11.953125 124.109375 11.457031 124.25 11.046875 124.433594 C 10.609375 124.632812 10.339844 125.042969 10.394531 125.449219 C 10.605469 127.054688 11.246094 131.757812 11.632812 133.234375 L 12.023438 134.738281 C 12.113281 135.082031 12.523438 135.25 12.917969 135.101562 C 12.9375 135.09375 12.957031 135.085938 12.976562 135.078125 C 14.367188 134.53125 14.949219 133.15625 14.785156 131.992188 C 14.726562 131.601562 16.007812 127.953125 16.007812 127.953125 C 15.304688 126.597656 15.410156 124.132812 15.410156 124.132812 " fill-opacity="1" fill-rule="nonzero"/><path fill="#ffffff" d="M 14.015625 129.765625 C 14.046875 129.839844 14.105469 129.902344 14.179688 129.9375 C 14.496094 130.082031 14.980469 130.410156 15.042969 130.652344 C 15.050781 130.6875 15.054688 130.730469 15 130.800781 C 14.886719 130.945312 14.910156 131.152344 15.054688 131.261719 C 15.195312 131.375 15.402344 131.351562 15.511719 131.210938 C 15.683594 130.996094 15.742188 130.75 15.679688 130.5 C 15.53125 129.859375 14.632812 129.421875 14.457031 129.339844 C 14.289062 129.265625 14.097656 129.335938 14.019531 129.5 C 13.980469 129.585938 13.980469 129.683594 14.015625 129.765625 " fill-opacity="1" fill-rule="nonzero"/><path fill="#fab831" d="M 30.292969 99.0625 L 28.757812 101.46875 C 28.265625 102.238281 27.914062 103.089844 27.722656 103.980469 L 26.089844 111.488281 L 23.988281 116.628906 L 33.183594 120.730469 L 36.621094 111.53125 L 40.042969 103.816406 L 30.292969 99.0625 " fill-opacity="1" fill-rule="nonzero"/><path fill="#ffffff" d="M 19.867188 121.957031 L 15.652344 123.773438 C 14.632812 124.214844 14.136719 125.375 14.519531 126.417969 C 14.90625 127.460938 16.035156 128.019531 17.097656 127.691406 L 21.332031 126.378906 C 20.921875 125.015625 20.289062 123.164062 19.867188 121.957031 " fill-opacity="1" fill-rule="nonzero"/><path fill="#8c541d" d="M 33.402344 121.015625 C 33.511719 121.015625 33.621094 120.945312 33.664062 120.832031 L 37.59375 110.699219 L 39.21875 109.519531 C 39.34375 109.429688 39.371094 109.25 39.28125 109.125 C 39.1875 108.996094 39.011719 108.96875 38.886719 109.0625 L 37.191406 110.289062 C 37.148438 110.320312 37.113281 110.363281 37.09375 110.414062 L 33.136719 120.628906 C 33.078125 120.773438 33.152344 120.9375 33.296875 120.996094 C 33.332031 121.007812 33.367188 121.015625 33.402344 121.015625 " fill-opacity="1" fill-rule="nonzero"/><path fill="#f8a18e" d="M 50.695312 91.027344 L 43.789062 84.214844 L 40.613281 87.757812 L 48.539062 94.234375 L 49.066406 94.667969 L 49.589844 94.707031 L 58.765625 95.433594 L 59.125 92.285156 L 50.695312 91.027344 " fill-opacity="1" fill-rule="nonzero"/><path fill="#69cee7" d="M 37.871094 80.992188 C 37.871094 80.992188 34.863281 81.140625 32.867188 89.914062 C 31.609375 95.433594 30.757812 97.59375 30.304688 98.433594 C 30.097656 98.816406 30.144531 99.285156 30.421875 99.621094 C 31.8125 101.296875 35.847656 105.496094 40.261719 103.816406 C 45.722656 101.734375 47.730469 90.878906 46.023438 85.304688 C 44.3125 79.730469 37.871094 80.992188 37.871094 80.992188 " fill-opacity="1" fill-rule="nonzero"/><path fill="#f03e81" d="M 75 97.496094 C 75 103.839844 69.863281 108.988281 63.523438 108.988281 C 57.183594 108.988281 52.046875 103.839844 52.046875 97.496094 C 52.046875 91.148438 57.183594 86.003906 63.523438 86.003906 C 69.863281 86.003906 75 91.148438 75 97.496094 " fill-opacity="1" fill-rule="nonzero"/><path fill="#f8a18e" d="M 37.085938 84.792969 C 38.195312 84.144531 39.625 84.539062 40.246094 85.667969 L 45.054688 94.40625 L 52.109375 97.882812 C 52.164062 97.863281 52.222656 97.839844 52.28125 97.820312 C 52.558594 97.730469 53.761719 97.601562 53.785156 97.605469 C 53.792969 97.605469 53.835938 97.613281 53.835938 97.613281 C 53.914062 97.605469 54.441406 97.488281 54.628906 97.4375 C 55 97.332031 55.378906 97.210938 55.738281 97.082031 L 55.746094 97.082031 C 55.984375 96.996094 56.246094 97.117188 56.324219 97.355469 C 56.398438 97.566406 56.308594 97.792969 56.121094 97.902344 C 55.761719 98.105469 55.40625 98.304688 55.035156 98.484375 C 55 98.503906 54.988281 98.574219 55 98.691406 C 55 98.691406 55 98.695312 55 98.695312 C 55.007812 98.695312 55.015625 98.6875 55.027344 98.6875 C 55.074219 98.6875 55.125 98.691406 55.167969 98.695312 L 56.769531 98.964844 L 56.679688 98.964844 L 58.410156 98.933594 C 58.597656 98.929688 58.753906 99.078125 58.757812 99.265625 C 58.761719 99.429688 58.644531 99.570312 58.492188 99.605469 L 57.707031 99.777344 L 58.113281 99.769531 C 58.300781 99.765625 58.457031 99.914062 58.460938 100.101562 C 58.464844 100.269531 58.34375 100.410156 58.1875 100.441406 L 57.613281 100.558594 C 57.734375 100.605469 57.820312 100.71875 57.828125 100.855469 C 57.835938 101.011719 57.734375 101.148438 57.589844 101.195312 L 57.34375 101.277344 C 57.363281 101.320312 57.375 101.367188 57.378906 101.414062 C 57.390625 101.574219 57.292969 101.714844 57.152344 101.761719 L 56.0625 102.136719 L 55.945312 102.144531 L 54.765625 102.289062 C 54.65625 102.304688 54.554688 102.289062 54.449219 102.253906 C 53.855469 102.199219 53.140625 101.980469 52.40625 101.617188 C 52.0625 101.441406 51.410156 101.035156 51.410156 101.035156 L 42.878906 97.574219 L 42.394531 97.375 L 42.019531 96.800781 L 36.320312 88.023438 C 35.609375 86.925781 35.957031 85.457031 37.085938 84.792969 " fill-opacity="1" fill-rule="nonzero"/><path fill="#f8a18e" d="M 48.089844 75.304688 C 48.757812 75.445312 49.355469 75.304688 49.421875 74.988281 C 49.488281 74.671875 49 74.304688 48.328125 74.160156 L 48.089844 75.304688 " fill-opacity="1" fill-rule="nonzero"/><path fill="#f8a18e" d="M 37.582031 81.136719 L 38.605469 76.585938 L 43.90625 77.648438 L 43.207031 82.542969 C 43.121094 83.144531 42.488281 83.5 41.929688 83.253906 L 37.582031 81.136719 " fill-opacity="1" fill-rule="nonzero"/><path fill="#f1426a" d="M 43.378906 81.332031 C 42.023438 80.585938 40.949219 78.945312 40.460938 76.886719 L 43.90625 77.648438 L 43.378906 81.332031 " fill-opacity="1" fill-rule="nonzero"/><path fill="#f8a18e" d="M 37.714844 75.054688 C 39.195312 78.710938 42.722656 80.730469 45.589844 79.566406 C 48.460938 78.402344 49.585938 74.492188 48.105469 70.835938 C 46.625 67.179688 43.101562 65.160156 40.230469 66.324219 C 37.359375 67.488281 36.234375 71.398438 37.714844 75.054688 " fill-opacity="1" fill-rule="nonzero"/><path fill="#9f3345" d="M 35.96875 67.652344 C 36.480469 67.273438 37.03125 67 37.585938 66.789062 C 38.421875 65.433594 40.429688 64.339844 42.738281 64.808594 C 47.703125 65.824219 47.804688 65.253906 47.804688 65.253906 C 47.804688 65.253906 47.328125 70.425781 41.683594 70.546875 C 41.683594 70.613281 41.648438 72.441406 40.789062 73.34375 C 41.027344 72.230469 40.585938 70.613281 40.550781 70.503906 C 40.535156 70.503906 40.519531 70.5 40.5 70.5 C 40.476562 70.867188 40.429688 71.253906 40.359375 71.648438 C 39.960938 73.796875 38.9375 75.449219 37.972656 75.605469 C 38.15625 75.984375 38.367188 76.332031 38.585938 76.667969 L 38.304688 77.925781 C 32.699219 76.855469 32.75 70.03125 35.96875 67.652344 " fill-opacity="1" fill-rule="nonzero"/><path fill="#f8a18e" d="M 36.636719 74.589844 C 36.667969 75.722656 37.609375 76.613281 38.742188 76.582031 C 39.871094 76.550781 40.765625 75.609375 40.734375 74.476562 C 40.703125 73.34375 39.761719 72.453125 38.628906 72.484375 C 37.5 72.515625 36.609375 73.457031 36.636719 74.589844 " fill-opacity="1" fill-rule="nonzero"/><path fill="#f1426a" d="M 38.148438 75.414062 C 38.183594 75.414062 38.222656 75.402344 38.257812 75.378906 L 39.363281 74.621094 C 39.421875 74.582031 39.457031 74.511719 39.453125 74.4375 C 39.445312 74.363281 39.402344 74.300781 39.335938 74.265625 L 38.195312 73.707031 C 38.09375 73.65625 37.96875 73.695312 37.921875 73.800781 C 37.871094 73.902344 37.910156 74.023438 38.015625 74.074219 L 38.839844 74.480469 L 38.023438 75.039062 C 37.929688 75.101562 37.90625 75.230469 37.96875 75.324219 C 38.011719 75.382812 38.078125 75.414062 38.148438 75.414062 " fill-opacity="1" fill-rule="nonzero"/><path fill="#f8a18e" d="M 96.652344 70.148438 C 97.335938 70.070312 97.855469 69.75 97.820312 69.429688 C 97.785156 69.109375 97.203125 68.910156 96.523438 68.988281 L 96.652344 70.148438 " fill-opacity="1" fill-rule="nonzero"/><path fill="#f8a18e" d="M 94.203125 76.640625 L 94.34375 80.277344 L 89.261719 81.0625 L 89.140625 75.796875 C 90.796875 76.792969 92.644531 77.105469 94.203125 76.640625 " fill-opacity="1" fill-rule="nonzero"/><path fill="#f1426a" d="M 94.277344 78.492188 C 92.808594 78 91.453125 76.582031 90.605469 74.644531 L 94.132812 74.773438 L 94.277344 78.492188 " fill-opacity="1" fill-rule="nonzero"/><path fill="#f8a18e" d="M 86.980469 73.949219 C 89.535156 76.953125 93.515625 77.761719 95.875 75.75 C 98.234375 73.742188 98.074219 69.675781 95.519531 66.671875 C 92.964844 63.667969 88.984375 62.859375 86.625 64.871094 C 84.265625 66.878906 84.425781 70.945312 86.980469 73.949219 " fill-opacity="1" fill-rule="nonzero"/><path fill="#9f3345" d="M 77.25 76.792969 C 80.671875 75 74.988281 70.941406 77.136719 65.679688 C 78.617188 62.046875 82.429688 62.882812 84.648438 63.75 C 85.710938 62.65625 87.65625 61.96875 89.71875 62.621094 C 94.550781 64.148438 94.710938 63.59375 94.710938 63.59375 C 94.710938 63.59375 93.695312 68.707031 88.039062 68.210938 C 88.207031 68.71875 88.335938 69.28125 88.417969 69.882812 C 88.71875 72.050781 88.265625 73.941406 87.402344 74.394531 C 88.144531 75.160156 88.265625 75.382812 89.140625 75.796875 C 87.425781 77.171875 85.957031 76.566406 85.277344 76.066406 C 84.59375 83.203125 77.632812 82.207031 77.632812 82.207031 C 78.476562 80.699219 77.597656 79.734375 77.597656 79.734375 C 74.199219 81.265625 72.558594 75.824219 72.558594 75.824219 C 72.558594 75.824219 73.832031 78.589844 77.25 76.792969 " fill-opacity="1" fill-rule="nonzero"/><path fill="#f8a18e" d="M 86.40625 75.21875 C 87.113281 76.105469 88.402344 76.25 89.285156 75.542969 C 90.167969 74.835938 90.3125 73.542969 89.605469 72.660156 C 88.902344 71.773438 87.613281 71.628906 86.726562 72.335938 C 85.84375 73.042969 85.699219 74.335938 86.40625 75.21875 " fill-opacity="1" fill-rule="nonzero"/><path fill="#f1426a" d="M 88.105469 74.96875 C 88.132812 74.941406 88.160156 74.910156 88.171875 74.871094 L 88.601562 73.601562 C 88.621094 73.53125 88.609375 73.457031 88.558594 73.398438 C 88.511719 73.34375 88.4375 73.320312 88.367188 73.332031 L 87.117188 73.574219 C 87.003906 73.59375 86.929688 73.703125 86.953125 73.816406 C 86.972656 73.925781 87.082031 74 87.195312 73.976562 L 88.097656 73.804688 L 87.78125 74.742188 C 87.746094 74.847656 87.800781 74.964844 87.910156 75 C 87.980469 75.023438 88.050781 75.007812 88.105469 74.96875 " fill-opacity="1" fill-rule="nonzero"/><path fill="#f8a18e" d="M 106.308594 81.484375 L 112.546875 74.757812 C 112.5 74.621094 112.488281 74.472656 112.519531 74.320312 L 112.894531 72.480469 L 112.957031 72.171875 C 112.964844 72.128906 112.992188 72.023438 113.011719 71.957031 L 113.078125 71.757812 C 113.265625 71.285156 113.476562 70.921875 113.675781 70.554688 C 113.773438 70.375 113.871094 70.195312 113.953125 70.027344 C 114.035156 69.867188 114.113281 69.671875 114.128906 69.621094 L 114.164062 69.503906 C 114.253906 69.214844 114.542969 69.023438 114.851562 69.066406 C 115.195312 69.117188 115.433594 69.433594 115.386719 69.777344 C 115.335938 70.140625 115.246094 70.335938 115.167969 70.558594 C 115.085938 70.769531 115 70.964844 114.914062 71.160156 C 114.855469 71.296875 114.800781 71.433594 114.742188 71.566406 C 114.769531 71.539062 114.796875 71.511719 114.828125 71.484375 L 116.726562 70.019531 L 117.429688 68.894531 C 117.613281 68.601562 117.996094 68.488281 118.3125 68.652344 C 118.550781 68.773438 118.683594 69.023438 118.675781 69.277344 C 118.878906 69.078125 119.1875 69.011719 119.453125 69.148438 C 119.785156 69.316406 119.917969 69.726562 119.746094 70.058594 L 119.613281 70.316406 C 119.644531 70.328125 119.675781 70.328125 119.703125 70.34375 C 120.039062 70.511719 120.167969 70.921875 119.996094 71.253906 L 119.320312 72.582031 C 119.289062 72.636719 119.25 72.691406 119.199219 72.738281 L 119.152344 72.78125 L 117.574219 74.230469 C 117.332031 74.554688 117.035156 74.863281 116.675781 75.140625 C 116.304688 75.421875 115.917969 75.628906 115.535156 75.773438 L 113.351562 78.59375 L 113.335938 78.582031 L 108.667969 84.546875 L 108.238281 85.09375 L 107.417969 85.214844 L 94.71875 87.078125 L 94.203125 82.347656 L 106.308594 81.484375 " fill-opacity="1" fill-rule="nonzero"/><path fill="#f03e81" d="M 89.261719 81.0625 L 94.34375 80.277344 C 94.34375 80.277344 94.34375 80.277344 96.523438 81.0625 L 100.976562 81.0625 L 100.976562 87.671875 L 99.835938 87.671875 C 101.933594 93.484375 104.023438 101.007812 104.023438 101.007812 L 94.277344 100.796875 C 94.277344 100.796875 88.210938 88.121094 88.023438 85.222656 C 87.835938 82.324219 89.261719 81.0625 89.261719 81.0625 " fill-opacity="1" fill-rule="nonzero"/><path fill="#cd1f28" d="M 93.207031 87.957031 L 99.835938 87.957031 C 99.992188 87.957031 100.121094 87.832031 100.121094 87.671875 C 100.121094 87.515625 99.992188 87.390625 99.835938 87.390625 L 93.207031 87.390625 C 93.050781 87.390625 92.921875 87.515625 92.921875 87.671875 C 92.921875 87.832031 93.050781 87.957031 93.207031 87.957031 " fill-opacity="1" fill-rule="nonzero"/><path fill="#cd1f28" d="M 89.90625 84.652344 C 90.0625 84.652344 90.1875 84.523438 90.1875 84.367188 C 90.1875 82.703125 91.542969 81.347656 93.207031 81.347656 L 97.171875 81.347656 C 97.328125 81.347656 97.457031 81.21875 97.457031 81.0625 C 97.457031 80.90625 97.328125 80.78125 97.171875 80.78125 L 93.207031 80.78125 C 91.230469 80.78125 89.621094 82.390625 89.621094 84.367188 C 89.621094 84.523438 89.75 84.652344 89.90625 84.652344 " fill-opacity="1" fill-rule="nonzero"/><path fill="#f8a18e" d="M 92.785156 111.128906 C 92.292969 112.847656 91.878906 114.582031 91.476562 116.320312 C 91.066406 118.058594 90.710938 119.804688 90.351562 121.554688 L 90.4375 121.261719 L 89.179688 125.265625 C 88.765625 126.597656 88.328125 127.925781 87.941406 129.269531 C 87.136719 131.949219 86.34375 134.632812 85.621094 137.339844 L 89.355469 138.65625 C 90.488281 136.09375 91.546875 133.503906 92.597656 130.914062 C 93.136719 129.621094 93.625 128.3125 94.140625 127.011719 L 95.664062 123.105469 L 95.691406 123.042969 L 95.75 122.816406 C 96.203125 121.089844 96.65625 119.367188 97.058594 117.625 C 97.464844 115.890625 97.859375 114.152344 98.183594 112.394531 L 92.785156 111.128906 " fill-opacity="1" fill-rule="nonzero"/><path fill="#fab831" d="M 94.769531 99.921875 L 91.566406 112.84375 C 91.566406 112.84375 93.3125 114.316406 97.859375 113.351562 L 94.769531 99.921875 " fill-opacity="1" fill-rule="nonzero"/><path fill="#ffffff" d="M 84.484375 141.714844 L 95.753906 141.714844 C 95.976562 141.714844 96.152344 141.535156 96.152344 141.316406 L 96.152344 139.550781 L 84.1875 139.550781 L 84.1875 141.417969 C 84.1875 141.582031 84.320312 141.714844 84.484375 141.714844 " fill-opacity="1" fill-rule="nonzero"/><path fill="#69cee7" d="M 90.339844 136.40625 C 90.339844 136.40625 93.769531 138.808594 95.472656 139.316406 L 96.144531 139.515625 C 96.144531 139.515625 96.664062 140.855469 89.890625 140.449219 C 89.890625 140.449219 85.003906 141.007812 84.371094 140.039062 C 83.738281 139.070312 85.660156 136.65625 85.660156 136.65625 C 85.660156 136.65625 86.941406 137.542969 88.285156 137.433594 C 89.628906 137.320312 90.339844 136.40625 90.339844 136.40625 " fill-opacity="1" fill-rule="nonzero"/><path fill="#69cee7" d="M 85.621094 141.996094 L 94.222656 141.996094 C 94.378906 141.996094 94.507812 141.871094 94.507812 141.714844 C 94.507812 141.558594 94.378906 141.429688 94.222656 141.429688 L 85.621094 141.429688 C 85.464844 141.429688 85.335938 141.558594 85.335938 141.714844 C 85.335938 141.871094 85.464844 141.996094 85.621094 141.996094 " fill-opacity="1" fill-rule="nonzero"/><path fill="#f8a18e" d="M 100.199219 111.148438 C 100.113281 112.933594 100.105469 114.71875 100.105469 116.5 C 100.101562 118.285156 100.152344 120.070312 100.199219 121.855469 L 100.226562 121.480469 L 99.835938 125.394531 C 99.714844 126.699219 99.566406 128 99.46875 129.308594 C 99.242188 131.921875 99.03125 134.539062 98.894531 137.164062 L 102.816406 137.699219 C 103.386719 135.132812 103.878906 132.554688 104.359375 129.976562 C 104.613281 128.6875 104.820312 127.394531 105.046875 126.101562 L 105.71875 122.226562 L 105.734375 122.125 L 105.742188 121.855469 C 105.792969 120.070312 105.84375 118.285156 105.835938 116.5 C 105.839844 114.71875 105.828125 112.933594 105.742188 111.148438 L 100.199219 111.148438 " fill-opacity="1" fill-rule="nonzero"/><path fill="#fab831" d="M 104.023438 101.007812 L 107.363281 111.859375 C 107.363281 111.859375 104.207031 114.96875 97.820312 114.425781 C 97.820312 114.425781 92.347656 108.644531 92.914062 105.703125 C 93.480469 102.765625 94.457031 100.335938 94.457031 100.335938 L 104.023438 101.007812 " fill-opacity="1" fill-rule="nonzero"/><path fill="#ffffff" d="M 98.285156 141.714844 L 109.554688 141.714844 C 109.777344 141.714844 109.953125 141.535156 109.953125 141.316406 L 109.953125 139.550781 L 97.988281 139.550781 L 97.988281 141.417969 C 97.988281 141.582031 98.121094 141.714844 98.285156 141.714844 " fill-opacity="1" fill-rule="nonzero"/><path fill="#69cee7" d="M 103.40625 135.847656 C 103.40625 135.847656 103.769531 136.089844 104.628906 136.808594 C 105.992188 137.949219 107.574219 138.808594 109.273438 139.316406 L 109.945312 139.515625 C 109.945312 139.515625 110.464844 140.855469 103.691406 140.449219 C 103.691406 140.449219 98.804688 141.007812 98.171875 140.039062 C 97.539062 139.070312 98.75 136.707031 98.75 136.707031 C 98.75 136.707031 99.957031 137.542969 101.300781 137.433594 C 102.644531 137.320312 103.40625 135.847656 103.40625 135.847656 " fill-opacity="1" fill-rule="nonzero"/><path fill="#69cee7" d="M 99.421875 141.996094 L 108.023438 141.996094 C 108.179688 141.996094 108.308594 141.871094 108.308594 141.714844 C 108.308594 141.558594 108.179688 141.429688 108.023438 141.429688 L 99.421875 141.429688 C 99.265625 141.429688 99.136719 141.558594 99.136719 141.714844 C 99.136719 141.871094 99.265625 141.996094 99.421875 141.996094 " fill-opacity="1" fill-rule="nonzero"/><path fill="#8c541d" d="M 97.632812 114.644531 C 97.699219 114.644531 97.765625 114.621094 97.820312 114.574219 C 97.9375 114.46875 97.949219 114.289062 97.84375 114.171875 C 97.796875 114.121094 93.199219 108.84375 93.199219 105.703125 C 93.199219 105.546875 93.070312 105.421875 92.914062 105.421875 C 92.757812 105.421875 92.632812 105.546875 92.632812 105.703125 C 92.632812 109.054688 97.226562 114.324219 97.421875 114.546875 C 97.476562 114.609375 97.554688 114.644531 97.632812 114.644531 " fill-opacity="1" fill-rule="nonzero"/><path fill="#8c541d" d="M 102.972656 113.964844 C 102.992188 113.964844 103.015625 113.960938 103.039062 113.953125 C 103.191406 113.917969 103.285156 113.761719 103.246094 113.613281 L 100.109375 100.9375 C 100.074219 100.785156 99.921875 100.691406 99.769531 100.730469 C 99.617188 100.769531 99.523438 100.921875 99.5625 101.074219 L 102.695312 113.746094 C 102.730469 113.878906 102.84375 113.964844 102.972656 113.964844 " fill-opacity="1" fill-rule="nonzero"/><path fill="#8c541d" d="M 101.679688 114.179688 C 101.699219 114.179688 101.722656 114.175781 101.746094 114.171875 C 101.898438 114.132812 101.992188 113.980469 101.953125 113.828125 L 98.667969 100.542969 C 98.628906 100.390625 98.476562 100.300781 98.324219 100.335938 C 98.171875 100.375 98.082031 100.527344 98.117188 100.679688 L 101.402344 113.964844 C 101.433594 114.089844 101.550781 114.179688 101.679688 114.179688 " fill-opacity="1" fill-rule="nonzero"/><path fill="#4bc07d" d="M 109.765625 67.902344 C 109.765625 74.25 114.902344 79.394531 121.242188 79.394531 C 127.578125 79.394531 132.71875 74.25 132.71875 67.902344 C 132.71875 61.554688 127.578125 56.410156 121.242188 56.410156 C 114.902344 56.410156 109.765625 61.554688 109.765625 67.902344 " fill-opacity="1" fill-rule="nonzero"/><path fill="#f8a18e" d="M 177.390625 131.957031 L 171.910156 133.832031 L 169.476562 126.691406 L 174.953125 124.816406 L 177.390625 131.957031 " fill-opacity="1" fill-rule="nonzero"/><path fill="#ffffff" d="M 179.421875 135.503906 C 179.792969 135.492188 180.277344 135.582031 180.480469 136.175781 C 180.707031 136.84375 180.371094 137.230469 179.289062 137.671875 C 178.539062 137.976562 172.488281 140.296875 168.273438 141.707031 L 163.328125 141.707031 C 163.328125 141.707031 160.945312 141.855469 160.945312 140.847656 C 160.945312 140.472656 161.125 140.09375 161.550781 139.789062 L 167.28125 139.355469 L 179.421875 135.503906 " fill-opacity="1" fill-rule="nonzero"/><path fill="#fab831" d="M 176.816406 130.304688 C 177.550781 130.933594 178.394531 131.570312 178.902344 132.90625 C 179.152344 133.566406 179.347656 134.265625 179.410156 134.890625 C 179.472656 135.5625 179.09375 136.191406 178.464844 136.433594 C 175.980469 137.375 169.996094 139.730469 167.558594 140.375 L 162.707031 140.371094 C 162.140625 140.523438 161.566406 140.160156 161.464844 139.574219 C 161.460938 139.546875 161.457031 139.519531 161.453125 139.488281 C 161.132812 137.417969 163.699219 136.75 165.511719 136.082031 C 166.121094 135.855469 171.0625 131.347656 171.0625 131.347656 C 171.441406 131.859375 172.925781 131.984375 174.25 131.753906 C 175.566406 131.523438 176.609375 130.914062 176.816406 130.304688 " fill-opacity="1" fill-rule="nonzero"/><path fill="#ffffff" d="M 169.53125 135.421875 C 169.429688 135.382812 169.335938 135.308594 169.285156 135.203125 C 169.0625 134.773438 168.570312 134.113281 168.222656 134.042969 C 168.175781 134.035156 168.117188 134.03125 168.019531 134.117188 C 167.828125 134.28125 167.539062 134.261719 167.375 134.070312 C 167.207031 133.878906 167.226562 133.589844 167.417969 133.421875 C 167.703125 133.171875 168.042969 133.074219 168.398438 133.140625 C 169.300781 133.3125 169.972656 134.535156 170.097656 134.78125 C 170.214844 135.003906 170.128906 135.28125 169.902344 135.398438 C 169.78125 135.460938 169.648438 135.464844 169.53125 135.421875 " fill-opacity="1" fill-rule="nonzero"/><path fill="#ffffff" d="M 168.386719 136.394531 C 168.285156 136.359375 168.191406 136.28125 168.140625 136.175781 C 167.917969 135.75 167.425781 135.082031 167.078125 135.019531 C 167.03125 135.007812 166.972656 135.003906 166.875 135.089844 C 166.683594 135.257812 166.394531 135.238281 166.230469 135.046875 C 166.0625 134.855469 166.082031 134.5625 166.273438 134.398438 C 166.5625 134.144531 166.898438 134.050781 167.253906 134.117188 C 168.152344 134.285156 168.828125 135.511719 168.953125 135.753906 C 169.070312 135.980469 168.980469 136.257812 168.757812 136.375 C 168.636719 136.433594 168.503906 136.4375 168.386719 136.394531 " fill-opacity="1" fill-rule="nonzero"/><path fill="#f8a18e" d="M 163.929688 135.558594 L 158.140625 135.558594 L 158.140625 128.011719 L 163.929688 128.011719 L 163.929688 135.558594 " fill-opacity="1" fill-rule="nonzero"/><path fill="#ffffff" d="M 164.707031 139.570312 C 165.0625 139.679688 165.492188 139.921875 165.492188 140.550781 C 165.492188 141.253906 165.050781 141.515625 163.882812 141.578125 C 162.71875 141.644531 149.867188 141.851562 148.132812 141.570312 C 145.988281 141.21875 146.035156 140.664062 146.15625 139.984375 C 146.222656 139.613281 146.570312 139.328125 147.070312 139.175781 L 164.707031 139.570312 " fill-opacity="1" fill-rule="nonzero"/><path fill="#fab831" d="M 163.921875 133.808594 C 164.414062 134.640625 165.003906 135.515625 165.054688 136.945312 C 165.082031 137.652344 165.039062 138.375 164.894531 138.988281 C 164.738281 139.644531 164.175781 140.117188 163.503906 140.140625 C 160.847656 140.230469 153.050781 140.46875 150.539062 140.289062 L 147.972656 140.105469 C 147.390625 140.0625 146.964844 139.53125 147.058594 138.949219 C 147.0625 138.917969 147.066406 138.890625 147.074219 138.863281 C 147.4375 136.800781 149.429688 135.660156 151.359375 135.613281 C 152.011719 135.597656 158.140625 132.933594 158.140625 132.933594 C 158.332031 133.539062 159.699219 134.136719 161.027344 134.347656 C 162.347656 134.558594 163.527344 134.320312 163.921875 133.808594 " fill-opacity="1" fill-rule="nonzero"/><path fill="#ffffff" d="M 155.375 136.292969 C 155.289062 136.222656 155.230469 136.121094 155.210938 136.003906 C 155.140625 135.527344 154.886719 134.742188 154.585938 134.5625 C 154.539062 134.539062 154.484375 134.519531 154.367188 134.566406 C 154.132812 134.664062 153.867188 134.550781 153.769531 134.316406 C 153.671875 134.082031 153.785156 133.8125 154.019531 133.714844 C 154.375 133.570312 154.726562 133.589844 155.035156 133.765625 C 155.835938 134.21875 156.078125 135.597656 156.117188 135.867188 C 156.15625 136.117188 155.984375 136.351562 155.734375 136.390625 C 155.601562 136.410156 155.472656 136.371094 155.375 136.292969 " fill-opacity="1" fill-rule="nonzero"/><path fill="#ffffff" d="M 153.976562 136.84375 C 153.890625 136.773438 153.832031 136.671875 153.8125 136.554688 C 153.738281 136.078125 153.492188 135.289062 153.183594 135.117188 C 153.140625 135.089844 153.085938 135.070312 152.96875 135.117188 C 152.734375 135.214844 152.464844 135.101562 152.371094 134.867188 C 152.273438 134.632812 152.386719 134.363281 152.621094 134.265625 C 152.976562 134.121094 153.328125 134.140625 153.636719 134.316406 C 154.4375 134.769531 154.679688 136.148438 154.71875 136.417969 C 154.757812 136.671875 154.585938 136.902344 154.335938 136.941406 C 154.203125 136.960938 154.074219 136.921875 153.976562 136.84375 " fill-opacity="1" fill-rule="nonzero"/><path fill="#4bc07d" d="M 163.929688 65.734375 C 163.929688 65.734375 166.035156 67.367188 168.808594 71.457031 C 171.582031 75.546875 168.808594 84.519531 168.808594 84.519531 L 170.648438 101.429688 L 177.433594 130.464844 L 169.621094 132.277344 L 161.660156 107.226562 L 162.789062 117.347656 L 163.667969 124.859375 L 164.601562 132.367188 L 156.121094 132.488281 L 150.839844 103.640625 C 150.816406 103.472656 150.800781 103.277344 150.800781 103.105469 L 150.800781 102.921875 L 150.671875 85.640625 L 150.5625 77.003906 L 150.402344 68.363281 L 163.929688 65.734375 " fill-opacity="1" fill-rule="nonzero"/><path fill="#fab831" d="M 150.558594 68.898438 L 148.285156 66.695312 L 147.179688 48.339844 L 147.164062 48.324219 C 145.617188 47.128906 145.148438 44.996094 146.046875 43.257812 L 151.453125 32.839844 L 157.265625 29.03125 C 157.265625 29.03125 162.523438 30.894531 163.511719 38.722656 C 164.503906 46.554688 163.019531 59.042969 163.019531 59.042969 L 165.195312 64.074219 L 163.929688 65.734375 L 150.558594 68.898438 " fill-opacity="1" fill-rule="nonzero"/><path fill="#f8a18e" d="M 157.265625 29.035156 L 151.453125 32.839844 L 150.660156 30.753906 L 148.285156 24.449219 L 154.816406 22.5 L 157.265625 29.035156 " fill-opacity="1" fill-rule="nonzero"/><path fill="#f1426a" d="M 155.316406 24.164062 C 154.730469 27.398438 152.996094 29.929688 150.660156 30.753906 L 148.285156 24.449219 L 154.816406 22.5 L 155.316406 24.164062 " fill-opacity="1" fill-rule="nonzero"/><path fill="#f8a18e" d="M 142.242188 21.210938 C 143.722656 26.734375 148 30.390625 151.796875 29.371094 C 155.59375 28.351562 157.472656 23.046875 155.996094 17.523438 C 154.515625 11.996094 150.234375 8.34375 146.4375 9.359375 C 142.640625 10.378906 140.761719 15.683594 142.242188 21.210938 " fill-opacity="1" fill-rule="nonzero"/><path fill="#f8a18e" d="M 146.039062 25.015625 C 145.136719 26.242188 143.90625 26.871094 143.292969 26.417969 C 142.671875 25.964844 142.902344 24.605469 143.804688 23.375 L 146.039062 25.015625 " fill-opacity="1" fill-rule="nonzero"/><path fill="#37404a" d="M 141.398438 13.445312 C 141.988281 12.285156 142.789062 11.394531 143.554688 10.945312 C 143.585938 10.847656 143.613281 10.75 143.65625 10.65625 C 144.683594 8.273438 147.867188 7.277344 151.25 8.0625 C 151.253906 6.9375 151.5625 5.742188 152.203125 4.632812 C 153.871094 1.738281 157.140625 0.503906 159.507812 1.871094 C 161.871094 3.238281 162.4375 6.691406 160.769531 9.582031 C 159.996094 10.925781 158.878906 11.90625 157.664062 12.4375 C 157.9375 12.886719 158.144531 13.34375 158.289062 13.804688 L 158.296875 13.804688 C 158.296875 13.804688 161.285156 21.207031 156.074219 25.234375 C 155.960938 25.324219 155.851562 25.394531 155.746094 25.449219 C 156.464844 23.632812 156.6875 21.375 156.300781 19.003906 C 154.378906 20.074219 151.496094 20.121094 148.722656 18.921875 C 147.03125 18.191406 145.660156 17.113281 144.71875 15.898438 C 143.691406 17.550781 142.265625 18.484375 141.359375 18.023438 C 140.351562 17.503906 140.367188 15.457031 141.398438 13.445312 " fill-opacity="1" fill-rule="nonzero"/><path fill="#f8a18e" d="M 157.601562 18.25 C 158.390625 19.632812 157.910156 21.398438 156.523438 22.191406 C 155.140625 22.980469 153.375 22.5 152.585938 21.117188 C 151.796875 19.730469 152.277344 17.96875 153.660156 17.175781 C 155.046875 16.382812 156.808594 16.863281 157.601562 18.25 " fill-opacity="1" fill-rule="nonzero"/><path fill="#f1426a" d="M 156.332031 20.320312 C 156.417969 20.289062 156.484375 20.207031 156.488281 20.105469 C 156.496094 19.972656 156.390625 19.855469 156.257812 19.851562 L 154.789062 19.773438 L 155.527344 18.613281 C 155.601562 18.5 155.570312 18.347656 155.453125 18.277344 C 155.339844 18.203125 155.191406 18.238281 155.117188 18.351562 L 154.152344 19.863281 C 154.105469 19.9375 154.101562 20.03125 154.140625 20.109375 C 154.179688 20.1875 154.257812 20.234375 154.34375 20.242188 L 156.230469 20.339844 C 156.265625 20.339844 156.300781 20.332031 156.332031 20.320312 " fill-opacity="1" fill-rule="nonzero"/><path fill="#f8a18e" d="M 125.621094 70.527344 L 127.246094 69.769531 L 129.53125 67.449219 C 129.570312 67.410156 129.613281 67.378906 129.65625 67.34375 C 129.46875 67.398438 129.273438 67.457031 129.078125 67.511719 C 128.804688 67.59375 128.527344 67.675781 128.226562 67.753906 C 127.914062 67.824219 127.640625 67.910156 127.144531 67.921875 C 126.675781 67.929688 126.285156 67.554688 126.277344 67.085938 C 126.269531 66.660156 126.570312 66.304688 126.972656 66.230469 L 127.140625 66.199219 C 127.210938 66.183594 127.484375 66.113281 127.710938 66.027344 C 127.953125 65.945312 128.210938 65.84375 128.46875 65.738281 C 129 65.535156 129.515625 65.308594 130.183594 65.132812 L 130.460938 65.074219 C 130.558594 65.0625 130.703125 65.042969 130.761719 65.039062 L 131.1875 65.003906 L 132.03125 64.9375 L 133.503906 64.820312 L 146.195312 55.398438 L 153.910156 41.105469 L 159.46875 44.144531 L 151.433594 59.027344 L 151.363281 59.15625 C 151.152344 59.539062 150.84375 59.875 150.445312 60.121094 L 135.527344 68.898438 L 135.191406 69.101562 C 134.929688 69.59375 134.582031 70.085938 134.140625 70.539062 C 133.707031 70.984375 133.234375 71.34375 132.757812 71.613281 L 130.5625 73.492188 L 130.496094 73.546875 C 130.425781 73.605469 130.347656 73.652344 130.265625 73.683594 L 128.371094 74.378906 C 127.894531 74.554688 127.367188 74.308594 127.191406 73.832031 C 127.179688 73.792969 127.171875 73.753906 127.160156 73.714844 L 126.804688 73.84375 C 126.332031 74.019531 125.800781 73.773438 125.625 73.296875 C 125.488281 72.921875 125.617188 72.511719 125.910156 72.273438 C 125.578125 72.234375 125.273438 72.015625 125.148438 71.675781 C 124.980469 71.226562 125.195312 70.730469 125.621094 70.527344 " fill-opacity="1" fill-rule="nonzero"/><path fill="#8c541d" d="M 153.910156 41.386719 C 154.019531 41.386719 154.128906 41.320312 154.171875 41.210938 L 156.75 34.753906 C 156.808594 34.609375 156.738281 34.445312 156.59375 34.386719 C 156.445312 34.328125 156.28125 34.398438 156.226562 34.542969 L 153.644531 41 C 153.589844 41.144531 153.660156 41.308594 153.804688 41.367188 C 153.839844 41.382812 153.875 41.386719 153.910156 41.386719 " fill-opacity="1" fill-rule="nonzero"/><path fill="#8c541d" d="M 161.425781 45.339844 C 161.460938 45.339844 161.496094 45.332031 161.527344 45.320312 C 161.601562 45.292969 161.65625 45.234375 161.6875 45.164062 L 163.300781 41.210938 C 163.359375 41.066406 163.289062 40.902344 163.144531 40.839844 C 163.003906 40.78125 162.835938 40.851562 162.777344 40.996094 L 161.273438 44.675781 L 159.585938 43.890625 C 159.445312 43.824219 159.277344 43.886719 159.210938 44.027344 C 159.144531 44.167969 159.207031 44.335938 159.347656 44.402344 L 161.304688 45.3125 C 161.34375 45.332031 161.382812 45.339844 161.425781 45.339844 " fill-opacity="1" fill-rule="nonzero"/><path fill="#2a816b" d="M 173.433594 131.773438 C 173.46875 131.773438 173.503906 131.765625 173.539062 131.757812 C 173.738281 131.699219 173.851562 131.488281 173.792969 131.289062 L 165.855469 104.117188 L 158.511719 67.171875 C 158.472656 66.964844 158.269531 66.832031 158.066406 66.875 C 157.863281 66.914062 157.730469 67.113281 157.773438 67.316406 L 165.121094 104.300781 L 173.070312 131.5 C 173.117188 131.664062 173.269531 131.773438 173.433594 131.773438 " fill-opacity="1" fill-rule="nonzero"/><path fill="#2a816b" d="M 160.945312 132.65625 C 160.964844 132.65625 160.988281 132.65625 161.007812 132.652344 C 161.214844 132.617188 161.351562 132.421875 161.320312 132.214844 L 156.433594 103.089844 L 156.867188 89.453125 C 156.871094 89.246094 156.710938 89.070312 156.5 89.066406 C 156.285156 89.054688 156.117188 89.222656 156.113281 89.429688 L 155.675781 103.105469 C 155.675781 103.128906 155.679688 103.15625 155.683594 103.179688 L 160.574219 132.339844 C 160.605469 132.527344 160.765625 132.65625 160.945312 132.65625 " fill-opacity="1" fill-rule="nonzero"/><path fill="#f03e81" d="M 198.480469 96.316406 C 195.714844 102.027344 188.851562 104.414062 183.148438 101.644531 C 177.441406 98.878906 175.058594 92.003906 177.824219 86.292969 C 180.585938 80.582031 187.453125 78.195312 193.15625 80.964844 C 198.859375 83.730469 201.242188 90.605469 198.480469 96.316406 " fill-opacity="1" fill-rule="nonzero"/><path fill="#f8a18e" d="M 197.539062 80.242188 C 196.933594 80.5625 196.324219 80.59375 196.171875 80.308594 C 196.019531 80.027344 196.386719 79.535156 196.988281 79.210938 L 197.539062 80.242188 " fill-opacity="1" fill-rule="nonzero"/><path fill="#f8a18e" d="M 207.074219 88.652344 L 207.132812 81.542969 L 202.371094 81.464844 L 202.007812 87.765625 L 207.074219 88.652344 " fill-opacity="1" fill-rule="nonzero"/><path fill="#f1426a" d="M 202.109375 85.984375 C 203.585938 85.523438 204.96875 84.128906 205.855469 82.207031 L 202.324219 82.269531 L 202.109375 85.984375 " fill-opacity="1" fill-rule="nonzero"/><path fill="#f8a18e" d="M 207.867188 78.507812 C 206.910156 82.335938 203.699219 84.828125 200.695312 84.074219 C 197.691406 83.320312 196.03125 79.605469 196.988281 75.777344 C 197.949219 71.953125 201.160156 69.457031 204.164062 70.210938 C 207.167969 70.964844 208.824219 74.679688 207.867188 78.507812 " fill-opacity="1" fill-rule="nonzero"/><path fill="#9f3345" d="M 205.238281 69.886719 C 205.246094 68.800781 204.867188 67.671875 204.113281 66.75 C 205.136719 67.457031 205.949219 68.597656 206.273438 69.925781 C 206.296875 70.019531 206.3125 70.113281 206.332031 70.207031 C 207.066406 70.320312 207.839844 70.539062 208.570312 70.933594 C 212.367188 72.992188 213.234375 80.703125 206.277344 81.777344 C 206.875 81.019531 207.359375 80.105469 207.6875 79.089844 C 206.757812 79.070312 205.589844 77.714844 204.882812 75.796875 C 204.152344 76.109375 203.230469 76.113281 202.125 75.410156 C 199.566406 73.785156 199.539062 75.640625 197.40625 75.160156 C 194.65625 74.542969 198.863281 64.585938 205.238281 69.886719 " fill-opacity="1" fill-rule="nonzero"/><path fill="#f8a18e" d="M 209.179688 78.941406 C 209.203125 80.074219 208.304688 81.011719 207.175781 81.035156 C 206.042969 81.058594 205.109375 80.15625 205.085938 79.023438 C 205.0625 77.894531 205.960938 76.957031 207.089844 76.933594 C 208.222656 76.910156 209.160156 77.808594 209.179688 78.941406 " fill-opacity="1" fill-rule="nonzero"/><path fill="#f1426a" d="M 207.714844 79.835938 C 207.675781 79.839844 207.636719 79.828125 207.601562 79.808594 L 206.460938 79.105469 C 206.398438 79.066406 206.359375 78.996094 206.363281 78.925781 C 206.363281 78.851562 206.40625 78.785156 206.46875 78.75 L 207.582031 78.132812 C 207.683594 78.078125 207.808594 78.113281 207.863281 78.214844 C 207.917969 78.3125 207.878906 78.4375 207.78125 78.496094 L 206.976562 78.9375 L 207.816406 79.457031 C 207.914062 79.515625 207.941406 79.640625 207.882812 79.738281 C 207.84375 79.800781 207.78125 79.835938 207.714844 79.835938 " fill-opacity="1" fill-rule="nonzero"/><g clip-path="url(#00e8b2fa67)"><path fill="#ffffff" d="M 214.496094 137.371094 C 214.714844 137.359375 215.007812 137.417969 215.160156 137.832031 C 215.324219 138.296875 215.140625 138.570312 214.519531 138.882812 C 214.222656 139.03125 212.480469 139.820312 210.628906 140.625 C 210.628906 140.625 205.945312 141.570312 205.261719 141.644531 C 203.980469 141.78125 203.90625 141.746094 203.808594 141.269531 C 203.757812 141.011719 203.882812 140.742188 204.121094 140.523438 L 214.496094 137.371094 " fill-opacity="1" fill-rule="nonzero"/></g><path fill="#fab831" d="M 212.390625 133.175781 C 212.855469 133.609375 213.703125 134.632812 214.066406 135.5625 C 214.246094 136.019531 214.394531 136.507812 214.460938 136.945312 C 214.53125 137.410156 214.332031 137.851562 213.96875 138.023438 C 213.148438 138.414062 211.492188 139.449219 209.804688 139.9375 C 208.410156 140.339844 204.835938 140.925781 204.835938 140.925781 C 204.472656 140.910156 204.148438 140.785156 204.0625 140.378906 C 204.058594 140.355469 204.054688 140.335938 204.046875 140.316406 C 203.761719 138.875 205.191406 138.351562 206.238281 137.871094 C 206.59375 137.710938 208.917969 134.710938 208.917969 134.710938 C 210.410156 134.574219 212.390625 133.175781 212.390625 133.175781 " fill-opacity="1" fill-rule="nonzero"/><path fill="#ffffff" d="M 208.484375 137.324219 C 208.40625 137.335938 208.324219 137.320312 208.253906 137.277344 C 207.96875 137.09375 207.4375 136.867188 207.203125 136.945312 C 207.171875 136.957031 207.132812 136.976562 207.105469 137.0625 C 207.046875 137.230469 206.867188 137.320312 206.695312 137.261719 C 206.527344 137.203125 206.4375 137.019531 206.496094 136.851562 C 206.582031 136.597656 206.753906 136.421875 206.992188 136.335938 C 207.601562 136.121094 208.441406 136.628906 208.601562 136.734375 C 208.75 136.828125 208.792969 137.027344 208.699219 137.179688 C 208.648438 137.257812 208.566406 137.308594 208.484375 137.324219 " fill-opacity="1" fill-rule="nonzero"/><path fill="#f8a18e" d="M 208.757812 123.496094 L 208.878906 110.355469 L 203.5625 108.792969 L 203.199219 122.75 L 203.160156 122.890625 C 203.003906 123.417969 203.03125 124.003906 203.277344 124.539062 L 208.292969 134.386719 C 208.753906 135.398438 209.921875 135.871094 210.957031 135.46875 C 211.992188 135.066406 212.53125 133.921875 212.1875 132.863281 L 208.757812 123.496094 " fill-opacity="1" fill-rule="nonzero"/><path fill="#4bc07d" d="M 201.601562 118.597656 L 209.71875 119.4375 L 209.71875 111.386719 L 204.027344 111.90625 L 201.601562 118.597656 " fill-opacity="1" fill-rule="nonzero"/><path fill="#ffffff" d="M 201.285156 140.222656 C 201.496094 140.304688 201.742188 140.480469 201.714844 140.925781 C 201.675781 141.425781 201.394531 141.605469 200.683594 141.640625 C 199.972656 141.675781 192.171875 141.707031 191.132812 141.488281 C 189.847656 141.21875 189.902344 140.828125 190.011719 140.34375 C 190.070312 140.082031 190.296875 139.882812 190.609375 139.777344 L 201.285156 140.222656 " fill-opacity="1" fill-rule="nonzero"/><path fill="#fab831" d="M 201.046875 135.449219 C 201.300781 136.042969 201.667969 137.347656 201.628906 138.363281 C 201.609375 138.863281 201.546875 139.375 201.425781 139.8125 C 201.300781 140.277344 200.933594 140.605469 200.523438 140.613281 C 198.910156 140.652344 194.167969 140.75 192.65625 140.601562 L 191.109375 140.445312 C 190.757812 140.410156 190.527344 140.03125 190.613281 139.617188 C 190.617188 139.597656 190.621094 139.578125 190.625 139.554688 C 190.949219 138.09375 192.214844 137.304688 193.386719 137.289062 C 193.785156 137.285156 197.183594 135.449219 197.183594 135.449219 C 198.628906 135.9375 201.046875 135.449219 201.046875 135.449219 " fill-opacity="1" fill-rule="nonzero"/><path fill="#ffffff" d="M 195.707031 137.703125 C 195.628906 137.683594 195.558594 137.636719 195.511719 137.566406 C 195.320312 137.277344 194.917969 136.847656 194.671875 136.824219 C 194.636719 136.820312 194.59375 136.824219 194.53125 136.890625 C 194.40625 137.023438 194.199219 137.03125 194.066406 136.910156 C 193.933594 136.785156 193.925781 136.578125 194.046875 136.445312 C 194.234375 136.246094 194.46875 136.148438 194.722656 136.171875 C 195.375 136.21875 195.949219 137.039062 196.058594 137.203125 C 196.15625 137.351562 196.117188 137.554688 195.964844 137.65625 C 195.886719 137.710938 195.792969 137.722656 195.707031 137.703125 " fill-opacity="1" fill-rule="nonzero"/><path fill="#f8a18e" d="M 206.367188 110.613281 L 200.570312 107.152344 L 195.902344 121.136719 L 195.832031 121.261719 C 195.578125 121.683594 195.457031 122.1875 195.519531 122.714844 L 196.886719 134.871094 C 197.011719 135.976562 197.976562 136.792969 199.085938 136.730469 C 200.195312 136.667969 201.0625 135.746094 201.0625 134.636719 L 201.050781 123.328125 L 206.367188 110.613281 " fill-opacity="1" fill-rule="nonzero"/><path fill="#4bc07d" d="M 199.082031 104.703125 L 195.832031 117.160156 L 202.691406 120.132812 C 202.691406 120.132812 210.507812 114.039062 210.261719 109.574219 C 210.082031 106.359375 208.132812 103.117188 208.132812 103.117188 L 199.082031 104.703125 " fill-opacity="1" fill-rule="nonzero"/><path fill="#f8a18e" d="M 178.726562 91.722656 C 178.804688 91.550781 179.007812 91.476562 179.179688 91.558594 L 179.546875 91.726562 L 178.898438 91.253906 C 178.769531 91.160156 178.722656 90.984375 178.792969 90.835938 C 178.871094 90.664062 179.074219 90.589844 179.242188 90.671875 L 180.8125 91.402344 L 180.730469 91.363281 L 182.304688 91.769531 C 182.347656 91.78125 182.394531 91.796875 182.4375 91.820312 C 182.445312 91.824219 182.449219 91.832031 182.457031 91.835938 C 182.460938 91.835938 182.460938 91.832031 182.460938 91.832031 C 182.515625 91.726562 182.535156 91.660156 182.511719 91.628906 C 182.246094 91.3125 182 90.988281 181.753906 90.65625 C 181.625 90.480469 181.636719 90.238281 181.789062 90.074219 C 181.957031 89.886719 182.246094 89.882812 182.429688 90.058594 L 182.4375 90.0625 C 182.710938 90.324219 183.007812 90.589844 183.304688 90.835938 C 183.457031 90.957031 183.605469 91.074219 183.746094 91.183594 C 183.824219 91.234375 183.894531 91.28125 183.960938 91.316406 L 183.984375 91.328125 C 183.988281 91.332031 184 91.328125 184.007812 91.332031 C 184.035156 91.335938 184.074219 91.339844 184.097656 91.34375 C 184.167969 91.359375 184.191406 91.363281 184.238281 91.382812 C 184.402344 91.449219 185.082031 91.941406 185.300781 92.136719 C 185.347656 92.179688 185.386719 92.222656 185.433594 92.265625 L 193.289062 91.941406 L 201.9375 86.894531 L 204.449219 90.621094 L 194.523438 95.734375 L 193.996094 95.71875 L 184.796875 95.464844 L 184.796875 95.429688 L 184.726562 95.4375 L 184.726562 95.425781 C 184.390625 95.492188 184.035156 95.539062 183.652344 95.558594 C 182.832031 95.59375 182.089844 95.503906 181.523438 95.3125 C 181.414062 95.304688 181.3125 95.277344 181.222656 95.21875 L 180.199219 94.605469 L 180.097656 94.550781 L 179.25 93.769531 C 179.140625 93.671875 179.109375 93.5 179.183594 93.359375 C 179.207031 93.316406 179.238281 93.277344 179.273438 93.25 L 179.078125 93.074219 C 178.96875 92.972656 178.929688 92.808594 179 92.667969 C 179.0625 92.542969 179.1875 92.476562 179.316406 92.480469 L 178.839844 92.144531 C 178.707031 92.050781 178.65625 91.875 178.726562 91.722656 " fill-opacity="1" fill-rule="nonzero"/><path fill="#f8a18e" d="M 177.878906 86.136719 C 177.996094 85.957031 178.195312 85.875 178.398438 85.886719 L 178.34375 85.851562 C 178.074219 85.675781 178 85.3125 178.175781 85.046875 C 178.351562 84.777344 178.710938 84.703125 178.976562 84.878906 L 180.726562 86.023438 L 180.832031 86.019531 C 180.785156 86.007812 180.742188 85.996094 180.703125 85.972656 L 180.640625 85.933594 L 178.75 84.691406 C 178.480469 84.515625 178.40625 84.15625 178.582031 83.886719 C 178.757812 83.617188 179.117188 83.542969 179.386719 83.71875 L 181.132812 84.863281 L 181.457031 84.851562 L 180.847656 84.652344 C 180.824219 84.644531 180.804688 84.636719 180.785156 84.625 L 180.734375 84.589844 L 179.371094 83.667969 C 179.105469 83.488281 179.035156 83.125 179.214844 82.859375 C 179.394531 82.59375 179.757812 82.523438 180.023438 82.703125 C 180.042969 82.714844 180.0625 82.730469 180.082031 82.746094 L 181.289062 83.808594 L 181.78125 84.042969 C 182 84.148438 182.089844 84.410156 181.988281 84.625 C 181.9375 84.730469 181.855469 84.804688 181.757812 84.84375 L 181.894531 84.839844 C 182.136719 84.832031 182.339844 85.019531 182.347656 85.261719 C 182.355469 85.464844 182.226562 85.636719 182.046875 85.695312 L 181.085938 86.011719 L 181.488281 85.996094 C 181.730469 85.988281 181.933594 86.179688 181.941406 86.421875 C 181.949219 86.621094 181.820312 86.796875 181.640625 86.855469 L 181.089844 87.035156 C 181.222656 87.109375 181.320312 87.246094 181.324219 87.410156 C 181.328125 87.601562 181.203125 87.773438 181.027344 87.832031 L 180.152344 88.136719 C 180.03125 88.179688 179.898438 88.15625 179.796875 88.09375 L 179.734375 88.050781 L 178.046875 86.941406 C 177.777344 86.765625 177.703125 86.40625 177.878906 86.136719 " fill-opacity="1" fill-rule="nonzero"/><path fill="#fab831" d="M 194.847656 90.28125 L 202.328125 86.097656 L 207.382812 85.644531 C 207.382812 85.644531 209.234375 88.625 209.582031 91.324219 C 209.925781 94.019531 209.351562 104.71875 209.351562 104.71875 C 209.351562 104.71875 201.925781 106.796875 198.714844 104.828125 L 198.851562 94.714844 L 197.96875 95.324219 L 194.847656 90.28125 " fill-opacity="1" fill-rule="nonzero"/><path fill="#8c541d" d="M 197.96875 95.609375 C 198.019531 95.609375 198.074219 95.59375 198.121094 95.5625 L 201.828125 93.132812 C 201.957031 93.046875 201.992188 92.871094 201.90625 92.738281 C 201.820312 92.609375 201.644531 92.574219 201.515625 92.65625 L 197.8125 95.085938 C 197.679688 95.171875 197.644531 95.347656 197.730469 95.480469 C 197.785156 95.5625 197.875 95.609375 197.96875 95.609375 " fill-opacity="1" fill-rule="nonzero"/></svg>