<svg xmlns="http://www.w3.org/2000/svg" xmlns:xlink="http://www.w3.org/1999/xlink" width="500" zoomAndPan="magnify" viewBox="0 0 375 374.999991" height="500" preserveAspectRatio="xMidYMid meet" version="1.0"><defs><clipPath id="9be81f6178"><path d="M 31.855469 31.855469 L 343.144531 31.855469 L 343.144531 343.144531 L 31.855469 343.144531 Z M 31.855469 31.855469 " clip-rule="nonzero"/></clipPath><clipPath id="e1dc13d728"><path d="M 187.5 31.855469 C 101.539062 31.855469 31.855469 101.539062 31.855469 187.5 C 31.855469 273.460938 101.539062 343.144531 187.5 343.144531 C 273.460938 343.144531 343.144531 273.460938 343.144531 187.5 C 343.144531 101.539062 273.460938 31.855469 187.5 31.855469 Z M 187.5 31.855469 " clip-rule="nonzero"/></clipPath><clipPath id="cb5db17644"><path d="M 30.476562 29.097656 L 344.726562 29.097656 L 344.726562 343.347656 L 30.476562 343.347656 Z M 30.476562 29.097656 " clip-rule="nonzero"/></clipPath><clipPath id="7706a82f80"><path d="M 52.425781 52.425781 L 322.425781 52.425781 L 322.425781 322.425781 L 52.425781 322.425781 Z M 52.425781 52.425781 " clip-rule="nonzero"/></clipPath></defs><g clip-path="url(#9be81f6178)"><g clip-path="url(#e1dc13d728)"><path fill="#f9cb40" d="M 31.855469 31.855469 L 343.144531 31.855469 L 343.144531 343.144531 L 31.855469 343.144531 Z M 31.855469 31.855469 " fill-opacity="1" fill-rule="nonzero"/></g></g><g clip-path="url(#cb5db17644)"><path fill="#ff715b" d="M 187.496094 343.136719 C 100.882812 343.136719 30.476562 272.726562 30.476562 186.117188 C 30.476562 99.503906 100.945312 29.097656 187.496094 29.097656 C 229.453125 29.097656 268.894531 45.425781 298.539062 75.074219 C 328.1875 104.71875 344.515625 144.160156 344.515625 186.117188 C 344.515625 272.726562 274.109375 343.136719 187.496094 343.136719 Z M 187.496094 39.335938 C 106.535156 39.335938 40.714844 105.15625 40.714844 186.117188 C 40.714844 267.074219 106.535156 332.898438 187.496094 332.898438 C 268.457031 332.898438 334.277344 267.074219 334.277344 186.117188 C 334.277344 146.925781 319.015625 110.054688 291.316406 82.296875 C 263.621094 54.535156 226.6875 39.335938 187.496094 39.335938 Z M 187.496094 39.335938 " fill-opacity="1" fill-rule="nonzero"/></g><g clip-path="url(#7706a82f80)"><path fill="#011936" d="M 277.886719 231.316406 C 276.242188 236.855469 271.320312 240.765625 265.554688 241.164062 C 232.453125 243.460938 205.316406 258.335938 193.644531 265.765625 L 193.644531 186.066406 C 193.644531 185.410156 193.542969 184.773438 193.347656 184.179688 C 233.824219 145.011719 302.441406 148.601562 302.441406 148.601562 Z M 192.023438 265.960938 C 192.023438 268.472656 189.984375 270.507812 187.472656 270.507812 C 184.960938 270.507812 182.925781 268.472656 182.925781 265.960938 L 182.925781 186.066406 C 182.925781 183.550781 184.960938 181.515625 187.472656 181.515625 C 189.984375 181.515625 192.023438 183.550781 192.023438 186.066406 Z M 181.300781 186.066406 L 181.300781 265.765625 C 169.628906 258.335938 142.496094 243.460938 109.394531 241.164062 C 103.628906 240.765625 98.707031 236.855469 97.058594 231.316406 L 72.503906 148.601562 C 72.503906 148.601562 141.121094 145.011719 181.597656 184.179688 C 181.40625 184.773438 181.300781 185.410156 181.300781 186.066406 Z M 184.40625 180.714844 C 184.253906 180.800781 184.101562 180.898438 183.957031 181 C 175.304688 171.996094 150.324219 150.625 105.074219 146.625 C 100.878906 146.253906 97.1875 143.695312 95.375 139.894531 L 92.144531 133.109375 C 92.144531 133.109375 153.472656 140.015625 184.40625 180.714844 Z M 181.953125 171.742188 C 181.953125 171.742188 163.714844 147.234375 122.117188 137.0625 C 117.164062 135.851562 113.542969 131.597656 113.113281 126.515625 C 134.796875 131.859375 164.621094 144.039062 181.953125 171.742188 Z M 179.210938 159.007812 C 179.898438 160.136719 180.128906 160.769531 180.128906 160.769531 C 179.835938 160.175781 179.527344 159.59375 179.210938 159.007812 C 176.777344 154.984375 168.589844 144.59375 144.605469 133.539062 C 140.59375 131.6875 137.9375 127.761719 137.710938 123.351562 L 137.507812 119.421875 C 151.855469 128.132812 169.871094 141.699219 179.210938 159.007812 Z M 282.796875 133.109375 L 279.570312 139.894531 C 277.757812 143.695312 274.070312 146.253906 269.875 146.625 C 224.621094 150.625 199.640625 171.996094 190.988281 181 C 190.847656 180.898438 190.691406 180.800781 190.539062 180.714844 C 221.472656 140.015625 282.796875 133.109375 282.796875 133.109375 Z M 261.832031 126.515625 C 261.40625 131.597656 257.785156 135.851562 252.832031 137.0625 C 211.226562 147.234375 192.996094 171.742188 192.996094 171.742188 C 210.324219 144.039062 240.148438 131.859375 261.832031 126.515625 Z M 195.730469 159.007812 C 205.074219 141.699219 223.089844 128.132812 237.4375 119.421875 L 237.234375 123.351562 C 237.007812 127.761719 234.351562 131.6875 230.34375 133.539062 C 206.355469 144.59375 198.167969 154.984375 195.730469 159.007812 C 195.417969 159.59375 195.113281 160.175781 194.816406 160.769531 C 194.816406 160.769531 195.050781 160.136719 195.730469 159.007812 Z M 187.472656 52.402344 C 112.875 52.402344 52.402344 112.875 52.402344 187.472656 C 52.402344 262.070312 112.875 322.542969 187.472656 322.542969 C 262.070312 322.542969 322.542969 262.070312 322.542969 187.472656 C 322.542969 112.875 262.070312 52.402344 187.472656 52.402344 " fill-opacity="1" fill-rule="nonzero"/></g></svg>